<svg width="2501" height="2502" viewBox="0 0 2501 2502" fill="none" xmlns="http://www.w3.org/2000/svg">
<path d="M0.353516 81.15L69.7935 40.83L139.234 0.5H139.244" stroke="white" stroke-opacity="0.03" stroke-miterlimit="10"/>
<path d="M2500.35 81.15L2430.91 40.83L2361.47 0.5H2361.46" stroke="white" stroke-opacity="0.03" stroke-miterlimit="10"/>
<path d="M0.353516 81.15L69.7935 40.83L139.234 0.5H139.244" stroke="white" stroke-opacity="0.03" stroke-miterlimit="10"/>
<path d="M2500.35 81.15L2430.91 40.83L2361.47 0.5H2361.46" stroke="white" stroke-opacity="0.03" stroke-miterlimit="10"/>
<path d="M0.353516 161.81L69.8035 121.48L139.244 81.15L208.684 40.82L278.124 0.5H278.134" stroke="white" stroke-opacity="0.03" stroke-miterlimit="10"/>
<path d="M2500.35 161.81L2430.9 121.48L2361.46 81.15L2292.02 40.82L2222.58 0.5H2222.57" stroke="white" stroke-opacity="0.03" stroke-miterlimit="10"/>
<path d="M0.353516 161.81L69.8035 121.48L139.244 81.15L208.684 40.82L278.124 0.5H278.134" stroke="white" stroke-opacity="0.03" stroke-miterlimit="10"/>
<path d="M2500.35 161.81L2430.9 121.48L2361.46 81.15L2292.02 40.82L2222.58 0.5H2222.57" stroke="white" stroke-opacity="0.03" stroke-miterlimit="10"/>
<path d="M0.353516 242.47L69.8035 202.14L139.244 161.81L208.684 121.48L278.134 81.15L347.583 40.83L417.023 0.5" stroke="white" stroke-opacity="0.03" stroke-miterlimit="10"/>
<path d="M2500.35 242.47L2430.9 202.14L2361.46 161.81L2292.02 121.48L2222.57 81.15L2153.12 40.83L2083.68 0.5" stroke="white" stroke-opacity="0.03" stroke-miterlimit="10"/>
<path d="M0.353516 242.47L69.8035 202.14L139.244 161.81L208.684 121.48L278.134 81.15L347.583 40.83L417.023 0.5" stroke="white" stroke-opacity="0.03" stroke-miterlimit="10"/>
<path d="M2500.35 242.47L2430.9 202.14L2361.46 161.81L2292.02 121.48L2222.57 81.15L2153.12 40.83L2083.68 0.5" stroke="white" stroke-opacity="0.03" stroke-miterlimit="10"/>
<path d="M0.353516 323.12L69.7935 282.8L139.244 242.47L208.684 202.14L278.124 161.81L347.574 121.48L417.023 81.15L486.464 40.83L555.904 0.5H555.914" stroke="white" stroke-opacity="0.03" stroke-miterlimit="10"/>
<path d="M2500.35 323.12L2430.91 282.8L2361.46 242.47L2292.02 202.14L2222.58 161.81L2153.13 121.48L2083.68 81.15L2014.24 40.83L1944.8 0.5H1944.79" stroke="white" stroke-opacity="0.03" stroke-miterlimit="10"/>
<path d="M0.353516 323.12L69.7935 282.8L139.244 242.47L208.684 202.14L278.124 161.81L347.574 121.48L417.023 81.15L486.464 40.83L555.904 0.5H555.914" stroke="white" stroke-opacity="0.03" stroke-miterlimit="10"/>
<path d="M2500.35 323.12L2430.91 282.8L2361.46 242.47L2292.02 202.14L2222.58 161.81L2153.13 121.48L2083.68 81.15L2014.24 40.83L1944.8 0.5H1944.79" stroke="white" stroke-opacity="0.03" stroke-miterlimit="10"/>
<path d="M0.353516 403.78L69.8035 363.45L139.244 323.12L208.684 282.79L278.134 242.47L347.574 202.14L417.023 161.81L486.464 121.48L555.904 81.15L625.354 40.83L694.794 0.5H694.804" stroke="white" stroke-opacity="0.03" stroke-miterlimit="10"/>
<path d="M2500.35 403.78L2430.9 363.45L2361.46 323.12L2292.02 282.79L2222.57 242.47L2153.13 202.14L2083.68 161.81L2014.24 121.48L1944.8 81.15L1875.35 40.83L1805.91 0.5H1805.9" stroke="white" stroke-opacity="0.03" stroke-miterlimit="10"/>
<path d="M0.353516 403.78L69.8035 363.45L139.244 323.12L208.684 282.79L278.134 242.47L347.574 202.14L417.023 161.81L486.464 121.48L555.904 81.15L625.354 40.83L694.794 0.5H694.804" stroke="white" stroke-opacity="0.03" stroke-miterlimit="10"/>
<path d="M2500.35 403.78L2430.9 363.45L2361.46 323.12L2292.02 282.79L2222.57 242.47L2153.13 202.14L2083.68 161.81L2014.24 121.48L1944.8 81.15L1875.35 40.83L1805.91 0.5H1805.9" stroke="white" stroke-opacity="0.03" stroke-miterlimit="10"/>
<path d="M0.353516 484.44H0.363516L69.8035 444.11L139.244 403.78L208.684 363.45L278.134 323.12L347.583 282.8L417.023 242.47L486.474 202.14L555.914 161.81L625.354 121.48L694.804 81.16L764.244 40.83L833.684 0.5H833.694" stroke="white" stroke-opacity="0.03" stroke-miterlimit="10"/>
<path d="M2500.35 484.44H2500.34L2430.9 444.11L2361.46 403.78L2292.02 363.45L2222.57 323.12L2153.12 282.8L2083.68 242.47L2014.23 202.14L1944.79 161.81L1875.35 121.48L1805.9 81.16L1736.46 40.83L1667.02 0.5H1667.01" stroke="white" stroke-opacity="0.03" stroke-miterlimit="10"/>
<path d="M0.353516 484.44H0.363516L69.8035 444.11L139.244 403.78L208.684 363.45L278.134 323.12L347.583 282.8L417.023 242.47L486.474 202.14L555.914 161.81L625.354 121.48L694.804 81.16L764.244 40.83L833.684 0.5H833.694" stroke="white" stroke-opacity="0.03" stroke-miterlimit="10"/>
<path d="M2500.35 484.44H2500.34L2430.9 444.11L2361.46 403.78L2292.02 363.45L2222.57 323.12L2153.12 282.8L2083.68 242.47L2014.23 202.14L1944.79 161.81L1875.35 121.48L1805.9 81.16L1736.46 40.83L1667.02 0.5H1667.01" stroke="white" stroke-opacity="0.03" stroke-miterlimit="10"/>
<path d="M0.353516 565.09L69.8035 524.76L139.244 484.44L208.684 444.11L278.124 403.78L347.574 363.45L417.023 323.12L486.464 282.8L555.914 242.47L625.354 202.14L694.794 161.81L764.244 121.48L833.694 81.15L903.134 40.83L972.574 0.5H972.584" stroke="white" stroke-opacity="0.03" stroke-miterlimit="10"/>
<path d="M2500.35 565.09L2430.9 524.76L2361.46 484.44L2292.02 444.11L2222.58 403.78L2153.13 363.45L2083.68 323.12L2014.24 282.8L1944.79 242.47L1875.35 202.14L1805.91 161.81L1736.46 121.48L1667.01 81.15L1597.57 40.83L1528.13 0.5H1528.12" stroke="white" stroke-opacity="0.03" stroke-miterlimit="10"/>
<path d="M0.353516 565.09L69.8035 524.76L139.244 484.44L208.684 444.11L278.124 403.78L347.574 363.45L417.023 323.12L486.464 282.8L555.914 242.47L625.354 202.14L694.794 161.81L764.244 121.48L833.694 81.15L903.134 40.83L972.574 0.5H972.584" stroke="white" stroke-opacity="0.03" stroke-miterlimit="10"/>
<path d="M2500.35 565.09L2430.9 524.76L2361.46 484.44L2292.02 444.11L2222.58 403.78L2153.13 363.45L2083.68 323.12L2014.24 282.8L1944.79 242.47L1875.35 202.14L1805.91 161.81L1736.46 121.48L1667.01 81.15L1597.57 40.83L1528.13 0.5H1528.12" stroke="white" stroke-opacity="0.03" stroke-miterlimit="10"/>
<path d="M0.353516 645.75L69.8035 605.42L139.244 565.09L208.684 524.76L278.134 484.44L347.574 444.11L417.023 403.78L486.464 363.45L555.904 323.12L625.354 282.79L694.804 242.47L764.244 202.14L833.684 161.81L903.134 121.48L972.574 81.15L1042.02 40.83L1111.46 0.5" stroke="white" stroke-opacity="0.03" stroke-miterlimit="10"/>
<path d="M2500.35 645.75L2430.9 605.42L2361.46 565.09L2292.02 524.76L2222.57 484.44L2153.13 444.11L2083.68 403.78L2014.24 363.45L1944.8 323.12L1875.35 282.79L1805.9 242.47L1736.46 202.14L1667.02 161.81L1597.57 121.48L1528.13 81.15L1458.68 40.83L1389.24 0.5" stroke="white" stroke-opacity="0.03" stroke-miterlimit="10"/>
<path d="M0.353516 645.75L69.8035 605.42L139.244 565.09L208.684 524.76L278.134 484.44L347.574 444.11L417.023 403.78L486.464 363.45L555.904 323.12L625.354 282.79L694.804 242.47L764.244 202.14L833.684 161.81L903.134 121.48L972.574 81.15L1042.02 40.83L1111.46 0.5" stroke="white" stroke-opacity="0.03" stroke-miterlimit="10"/>
<path d="M2500.35 645.75L2430.9 605.42L2361.46 565.09L2292.02 524.76L2222.57 484.44L2153.13 444.11L2083.68 403.78L2014.24 363.45L1944.8 323.12L1875.35 282.79L1805.9 242.47L1736.46 202.14L1667.02 161.81L1597.57 121.48L1528.13 81.15L1458.68 40.83L1389.24 0.5" stroke="white" stroke-opacity="0.03" stroke-miterlimit="10"/>
<path d="M0.353516 726.4L69.7935 686.08L139.244 645.75L208.684 605.42L278.124 565.09L347.574 524.76L417.014 484.44L486.464 444.11L555.904 403.78L625.354 363.45L694.794 323.12L764.244 282.79L833.684 242.47L903.134 202.14L972.574 161.81L1042.02 121.48L1111.46 81.15L1180.9 40.83L1250.34 0.5H1250.35" stroke="white" stroke-opacity="0.03" stroke-miterlimit="10"/>
<path d="M2500.35 726.4L2430.91 686.08L2361.46 645.75L2292.02 605.42L2222.58 565.09L2153.13 524.76L2083.69 484.44L2014.24 444.11L1944.8 403.78L1875.35 363.45L1805.91 323.12L1736.46 282.79L1667.02 242.47L1597.57 202.14L1528.13 161.81L1458.68 121.48L1389.24 81.15L1319.8 40.83L1250.36 0.5H1250.35" stroke="white" stroke-opacity="0.03" stroke-miterlimit="10"/>
<path d="M0.353516 726.4L69.7935 686.08L139.244 645.75L208.684 605.42L278.124 565.09L347.574 524.76L417.014 484.44L486.464 444.11L555.904 403.78L625.354 363.45L694.794 323.12L764.244 282.79L833.684 242.47L903.134 202.14L972.574 161.81L1042.02 121.48L1111.46 81.15L1180.9 40.83L1250.34 0.5H1250.35" stroke="white" stroke-opacity="0.03" stroke-miterlimit="10"/>
<path d="M2500.35 726.4L2430.91 686.08L2361.46 645.75L2292.02 605.42L2222.58 565.09L2153.13 524.76L2083.69 484.44L2014.24 444.11L1944.8 403.78L1875.35 363.45L1805.91 323.12L1736.46 282.79L1667.02 242.47L1597.57 202.14L1528.13 161.81L1458.68 121.48L1389.24 81.15L1319.8 40.83L1250.36 0.5H1250.35" stroke="white" stroke-opacity="0.03" stroke-miterlimit="10"/>
<path d="M0.353516 807.06L69.8035 766.73L139.244 726.41L208.684 686.08L278.134 645.75L347.574 605.42L417.023 565.09L486.464 524.77L555.914 484.44L625.354 444.11L694.794 403.78L764.244 363.45L833.694 323.12L903.134 282.8L972.574 242.47L1042.02 202.14L1111.46 161.81L1180.91 121.48L1250.35 81.16L1319.8 40.83L1389.24 0.5" stroke="white" stroke-opacity="0.03" stroke-miterlimit="10"/>
<path d="M2500.35 807.06L2430.9 766.73L2361.46 726.41L2292.02 686.08L2222.57 645.75L2153.13 605.42L2083.68 565.09L2014.24 524.77L1944.79 484.44L1875.35 444.11L1805.91 403.78L1736.46 363.45L1667.01 323.12L1597.57 282.8L1528.13 242.47L1458.68 202.14L1389.24 161.81L1319.79 121.48L1250.35 81.16L1180.9 40.83L1111.46 0.5" stroke="white" stroke-opacity="0.03" stroke-miterlimit="10"/>
<path d="M0.353516 807.06L69.8035 766.73L139.244 726.41L208.684 686.08L278.134 645.75L347.574 605.42L417.023 565.09L486.464 524.77L555.914 484.44L625.354 444.11L694.794 403.78L764.244 363.45L833.694 323.12L903.134 282.8L972.574 242.47L1042.02 202.14L1111.46 161.81L1180.91 121.48L1250.35 81.16L1319.8 40.83L1389.24 0.5" stroke="white" stroke-opacity="0.03" stroke-miterlimit="10"/>
<path d="M2500.35 807.06L2430.9 766.73L2361.46 726.41L2292.02 686.08L2222.57 645.75L2153.13 605.42L2083.68 565.09L2014.24 524.77L1944.79 484.44L1875.35 444.11L1805.91 403.78L1736.46 363.45L1667.01 323.12L1597.57 282.8L1528.13 242.47L1458.68 202.14L1389.24 161.81L1319.79 121.48L1250.35 81.16L1180.9 40.83L1111.46 0.5" stroke="white" stroke-opacity="0.03" stroke-miterlimit="10"/>
<path d="M0.353516 887.72L69.8035 847.39L139.244 807.06L208.684 766.73L278.134 726.41L347.583 686.08L417.023 645.75L486.464 605.42L555.904 565.09L625.354 524.76L694.804 484.44L764.244 444.11L833.694 403.78L903.134 363.45L972.574 323.12L1042.02 282.8L1111.46 242.47L1180.91 202.14L1250.35 161.81L1319.79 121.48L1389.24 81.15L1458.68 40.83L1528.12 0.5H1528.13" stroke="white" stroke-opacity="0.03" stroke-miterlimit="10"/>
<path d="M2500.35 887.72L2430.9 847.39L2361.46 807.06L2292.02 766.73L2222.57 726.41L2153.12 686.08L2083.68 645.75L2014.24 605.42L1944.8 565.09L1875.35 524.76L1805.9 484.44L1736.46 444.11L1667.01 403.78L1597.57 363.45L1528.13 323.12L1458.68 282.8L1389.24 242.47L1319.79 202.14L1250.35 161.81L1180.91 121.48L1111.46 81.15L1042.02 40.83L972.584 0.5H972.574" stroke="white" stroke-opacity="0.03" stroke-miterlimit="10"/>
<path d="M0.353516 887.72L69.8035 847.39L139.244 807.06L208.684 766.73L278.134 726.41L347.583 686.08L417.023 645.75L486.464 605.42L555.904 565.09L625.354 524.76L694.804 484.44L764.244 444.11L833.694 403.78L903.134 363.45L972.574 323.12L1042.02 282.8L1111.46 242.47L1180.91 202.14L1250.35 161.81L1319.79 121.48L1389.24 81.15L1458.68 40.83L1528.12 0.5H1528.13" stroke="white" stroke-opacity="0.03" stroke-miterlimit="10"/>
<path d="M2500.35 887.72L2430.9 847.39L2361.46 807.06L2292.02 766.73L2222.57 726.41L2153.12 686.08L2083.68 645.75L2014.24 605.42L1944.8 565.09L1875.35 524.76L1805.9 484.44L1736.46 444.11L1667.01 403.78L1597.57 363.45L1528.13 323.12L1458.68 282.8L1389.24 242.47L1319.79 202.14L1250.35 161.81L1180.91 121.48L1111.46 81.15L1042.02 40.83L972.584 0.5H972.574" stroke="white" stroke-opacity="0.03" stroke-miterlimit="10"/>
<path d="M0.353516 968.37L69.7935 928.05L139.244 887.72L208.684 847.39L278.124 807.06L347.574 766.73L417.023 726.4L486.464 686.08L555.904 645.75L625.354 605.42L694.794 565.09L764.244 524.76L833.684 484.44L903.134 444.11L972.574 403.78L1042.02 363.45L1111.46 323.12L1180.91 282.79L1250.35 242.47L1319.79 202.14L1389.24 161.81L1458.68 121.48L1528.13 81.15L1597.57 40.83L1667.01 0.5H1667.02" stroke="white" stroke-opacity="0.03" stroke-miterlimit="10"/>
<path d="M2500.35 968.37L2430.91 928.05L2361.46 887.72L2292.02 847.39L2222.58 807.06L2153.13 766.73L2083.68 726.4L2014.24 686.08L1944.8 645.75L1875.35 605.42L1805.91 565.09L1736.46 524.76L1667.02 484.44L1597.57 444.11L1528.13 403.78L1458.68 363.45L1389.24 323.12L1319.79 282.79L1250.35 242.47L1180.91 202.14L1111.46 161.81L1042.02 121.48L972.574 81.15L903.134 40.83L833.694 0.5H833.684" stroke="white" stroke-opacity="0.03" stroke-miterlimit="10"/>
<path d="M0.353516 968.37L69.7935 928.05L139.244 887.72L208.684 847.39L278.124 807.06L347.574 766.73L417.023 726.4L486.464 686.08L555.904 645.75L625.354 605.42L694.794 565.09L764.244 524.76L833.684 484.44L903.134 444.11L972.574 403.78L1042.02 363.45L1111.46 323.12L1180.91 282.79L1250.35 242.47L1319.79 202.14L1389.24 161.81L1458.68 121.48L1528.13 81.15L1597.57 40.83L1667.01 0.5H1667.02" stroke="white" stroke-opacity="0.03" stroke-miterlimit="10"/>
<path d="M2500.35 968.37L2430.91 928.05L2361.46 887.72L2292.02 847.39L2222.58 807.06L2153.13 766.73L2083.68 726.4L2014.24 686.08L1944.8 645.75L1875.35 605.42L1805.91 565.09L1736.46 524.76L1667.02 484.44L1597.57 444.11L1528.13 403.78L1458.68 363.45L1389.24 323.12L1319.79 282.79L1250.35 242.47L1180.91 202.14L1111.46 161.81L1042.02 121.48L972.574 81.15L903.134 40.83L833.694 0.5H833.684" stroke="white" stroke-opacity="0.03" stroke-miterlimit="10"/>
<path d="M0.353516 1049.03L69.8035 1008.7L139.244 968.37L208.684 928.04L278.134 887.72L347.574 847.39L417.023 807.06L486.464 766.73L555.904 726.4L625.354 686.08L694.794 645.75L764.244 605.42L833.684 565.09L903.134 524.76L972.574 484.43L1042.02 444.11L1111.46 403.78L1180.9 363.45L1250.35 323.12L1319.79 282.79L1389.24 242.47L1458.68 202.14L1528.13 161.81L1597.57 121.48L1667.01 81.15L1736.46 40.83L1805.89 0.5H1805.9" stroke="white" stroke-opacity="0.03" stroke-miterlimit="10"/>
<path d="M2500.35 1049.03L2430.9 1008.7L2361.46 968.37L2292.02 928.04L2222.57 887.72L2153.13 847.39L2083.68 807.06L2014.24 766.73L1944.8 726.4L1875.35 686.08L1805.91 645.75L1736.46 605.42L1667.02 565.09L1597.57 524.76L1528.13 484.43L1458.68 444.11L1389.24 403.78L1319.8 363.45L1250.35 323.12L1180.91 282.79L1111.46 242.47L1042.02 202.14L972.573 161.81L903.133 121.48L833.693 81.15L764.243 40.83L694.813 0.5H694.803" stroke="white" stroke-opacity="0.03" stroke-miterlimit="10"/>
<path d="M0.353516 1049.03L69.8035 1008.7L139.244 968.37L208.684 928.04L278.134 887.72L347.574 847.39L417.023 807.06L486.464 766.73L555.904 726.4L625.354 686.08L694.794 645.75L764.244 605.42L833.684 565.09L903.134 524.76L972.574 484.43L1042.02 444.11L1111.46 403.78L1180.9 363.45L1250.35 323.12L1319.79 282.79L1389.24 242.47L1458.68 202.14L1528.13 161.81L1597.57 121.48L1667.01 81.15L1736.46 40.83L1805.89 0.5H1805.9" stroke="white" stroke-opacity="0.03" stroke-miterlimit="10"/>
<path d="M2500.35 1049.03L2430.9 1008.7L2361.46 968.37L2292.02 928.04L2222.57 887.72L2153.13 847.39L2083.68 807.06L2014.24 766.73L1944.8 726.4L1875.35 686.08L1805.91 645.75L1736.46 605.42L1667.02 565.09L1597.57 524.76L1528.13 484.43L1458.68 444.11L1389.24 403.78L1319.8 363.45L1250.35 323.12L1180.91 282.79L1111.46 242.47L1042.02 202.14L972.573 161.81L903.133 121.48L833.693 81.15L764.243 40.83L694.813 0.5H694.803" stroke="white" stroke-opacity="0.03" stroke-miterlimit="10"/>
<path d="M0.353516 1129.69L69.8035 1089.36L139.244 1049.03L208.684 1008.7L278.134 968.37L347.583 928.05L417.023 887.72L486.464 847.39L555.914 807.06L625.354 766.73L694.804 726.41L764.244 686.08L833.694 645.75L903.134 605.42L972.574 565.09L1042.02 524.76L1111.46 484.44L1180.91 444.11L1250.35 403.78L1319.8 363.45L1389.24 323.12L1458.68 282.8L1528.13 242.47L1597.57 202.14L1667.02 161.81L1736.46 121.48L1805.9 81.16L1875.35 40.83L1944.79 0.5H1944.8" stroke="white" stroke-opacity="0.03" stroke-miterlimit="10"/>
<path d="M2500.35 1129.69L2430.9 1089.36L2361.46 1049.03L2292.02 1008.7L2222.57 968.37L2153.12 928.05L2083.68 887.72L2014.24 847.39L1944.79 807.06L1875.35 766.73L1805.9 726.41L1736.46 686.08L1667.01 645.75L1597.57 605.42L1528.13 565.09L1458.68 524.76L1389.24 484.44L1319.79 444.11L1250.35 403.78L1180.9 363.45L1111.46 323.12L1042.02 282.8L972.574 242.47L903.134 202.14L833.684 161.81L764.244 121.48L694.804 81.16L625.354 40.83L555.914 0.5H555.904" stroke="white" stroke-opacity="0.03" stroke-miterlimit="10"/>
<path d="M0.353516 1129.69L69.8035 1089.36L139.244 1049.03L208.684 1008.7L278.134 968.37L347.583 928.05L417.023 887.72L486.464 847.39L555.914 807.06L625.354 766.73L694.804 726.41L764.244 686.08L833.694 645.75L903.134 605.42L972.574 565.09L1042.02 524.76L1111.46 484.44L1180.91 444.11L1250.35 403.78L1319.8 363.45L1389.24 323.12L1458.68 282.8L1528.13 242.47L1597.57 202.14L1667.02 161.81L1736.46 121.48L1805.9 81.16L1875.35 40.83L1944.79 0.5H1944.8" stroke="white" stroke-opacity="0.03" stroke-miterlimit="10"/>
<path d="M2500.35 1129.69L2430.9 1089.36L2361.46 1049.03L2292.02 1008.7L2222.57 968.37L2153.12 928.05L2083.68 887.72L2014.24 847.39L1944.79 807.06L1875.35 766.73L1805.9 726.41L1736.46 686.08L1667.01 645.75L1597.57 605.42L1528.13 565.09L1458.68 524.76L1389.24 484.44L1319.79 444.11L1250.35 403.78L1180.9 363.45L1111.46 323.12L1042.02 282.8L972.574 242.47L903.134 202.14L833.684 161.81L764.244 121.48L694.804 81.16L625.354 40.83L555.914 0.5H555.904" stroke="white" stroke-opacity="0.03" stroke-miterlimit="10"/>
<path d="M0.353516 1210.34L69.7935 1170.02L139.244 1129.69L208.684 1089.36L278.124 1049.03L347.574 1008.7L417.023 968.37L486.464 928.05L555.904 887.72L625.354 847.39L694.794 807.06L764.244 766.73L833.684 726.41L903.134 686.08L972.574 645.75L1042.02 605.42L1111.46 565.09L1180.91 524.76L1250.35 484.44L1319.79 444.11L1389.24 403.78L1458.68 363.45L1528.13 323.12L1597.57 282.8L1667.02 242.47L1736.46 202.14L1805.91 161.81L1875.35 121.48L1944.8 81.15L2014.24 40.83L2083.68 0.5" stroke="white" stroke-opacity="0.03" stroke-miterlimit="10"/>
<path d="M2500.35 1210.34L2430.91 1170.02L2361.46 1129.69L2292.02 1089.36L2222.58 1049.03L2153.13 1008.7L2083.68 968.37L2014.24 928.05L1944.8 887.72L1875.35 847.39L1805.91 807.06L1736.46 766.73L1667.02 726.41L1597.57 686.08L1528.13 645.75L1458.68 605.42L1389.24 565.09L1319.79 524.76L1250.35 484.44L1180.91 444.11L1111.46 403.78L1042.02 363.45L972.573 323.12L903.133 282.8L833.683 242.47L764.243 202.14L694.793 161.81L625.353 121.48L555.903 81.15L486.463 40.83L417.023 0.5" stroke="white" stroke-opacity="0.03" stroke-miterlimit="10"/>
<path d="M0.353516 1210.34L69.7935 1170.02L139.244 1129.69L208.684 1089.36L278.124 1049.03L347.574 1008.7L417.023 968.37L486.464 928.05L555.904 887.72L625.354 847.39L694.794 807.06L764.244 766.73L833.684 726.41L903.134 686.08L972.574 645.75L1042.02 605.42L1111.46 565.09L1180.91 524.76L1250.35 484.44L1319.79 444.11L1389.24 403.78L1458.68 363.45L1528.13 323.12L1597.57 282.8L1667.02 242.47L1736.46 202.14L1805.91 161.81L1875.35 121.48L1944.8 81.15L2014.24 40.83L2083.68 0.5" stroke="white" stroke-opacity="0.03" stroke-miterlimit="10"/>
<path d="M2500.35 1210.34L2430.91 1170.02L2361.46 1129.69L2292.02 1089.36L2222.58 1049.03L2153.13 1008.7L2083.68 968.37L2014.24 928.05L1944.8 887.72L1875.35 847.39L1805.91 807.06L1736.46 766.73L1667.02 726.41L1597.57 686.08L1528.13 645.75L1458.68 605.42L1389.24 565.09L1319.79 524.76L1250.35 484.44L1180.91 444.11L1111.46 403.78L1042.02 363.45L972.573 323.12L903.133 282.8L833.683 242.47L764.243 202.14L694.793 161.81L625.353 121.48L555.903 81.15L486.463 40.83L417.023 0.5" stroke="white" stroke-opacity="0.03" stroke-miterlimit="10"/>
<path d="M0.353516 1291L69.8035 1250.67L139.244 1210.34L208.684 1170.01L278.134 1129.69L347.574 1089.36L417.023 1049.03L486.464 1008.7L555.904 968.37L625.354 928.05L694.804 887.72L764.244 847.39L833.684 807.06L903.134 766.73L972.574 726.4L1042.02 686.08L1111.46 645.75L1180.91 605.42L1250.35 565.09L1319.79 524.76L1389.24 484.44L1458.68 444.11L1528.13 403.78L1597.57 363.45L1667.01 323.12L1736.46 282.79L1805.9 242.47L1875.35 202.14L1944.79 161.81L2014.24 121.48L2083.68 81.15L2153.12 40.83L2222.56 0.5H2222.57" stroke="white" stroke-opacity="0.03" stroke-miterlimit="10"/>
<path d="M2500.35 1291L2430.9 1250.67L2361.46 1210.34L2292.02 1170.01L2222.57 1129.69L2153.13 1089.36L2083.68 1049.03L2014.24 1008.7L1944.8 968.37L1875.35 928.05L1805.9 887.72L1736.46 847.39L1667.02 807.06L1597.57 766.73L1528.13 726.4L1458.68 686.08L1389.24 645.75L1319.79 605.42L1250.35 565.09L1180.91 524.76L1111.46 484.44L1042.02 444.11L972.573 403.78L903.133 363.45L833.693 323.12L764.243 282.79L694.803 242.47L625.353 202.14L555.913 161.81L486.463 121.48L417.023 81.15L347.583 40.83L278.143 0.5H278.133" stroke="white" stroke-opacity="0.03" stroke-miterlimit="10"/>
<path d="M0.353516 1291L69.8035 1250.67L139.244 1210.34L208.684 1170.01L278.134 1129.69L347.574 1089.36L417.023 1049.03L486.464 1008.7L555.904 968.37L625.354 928.05L694.804 887.72L764.244 847.39L833.684 807.06L903.134 766.73L972.574 726.4L1042.02 686.08L1111.46 645.75L1180.91 605.42L1250.35 565.09L1319.79 524.76L1389.24 484.44L1458.68 444.11L1528.13 403.78L1597.57 363.45L1667.01 323.12L1736.46 282.79L1805.9 242.47L1875.35 202.14L1944.79 161.81L2014.24 121.48L2083.68 81.15L2153.12 40.83L2222.56 0.5H2222.57" stroke="white" stroke-opacity="0.03" stroke-miterlimit="10"/>
<path d="M2500.35 1291L2430.9 1250.67L2361.46 1210.34L2292.02 1170.01L2222.57 1129.69L2153.13 1089.36L2083.68 1049.03L2014.24 1008.7L1944.8 968.37L1875.35 928.05L1805.9 887.72L1736.46 847.39L1667.02 807.06L1597.57 766.73L1528.13 726.4L1458.68 686.08L1389.24 645.75L1319.79 605.42L1250.35 565.09L1180.91 524.76L1111.46 484.44L1042.02 444.11L972.573 403.78L903.133 363.45L833.693 323.12L764.243 282.79L694.803 242.47L625.353 202.14L555.913 161.81L486.463 121.48L417.023 81.15L347.583 40.83L278.143 0.5H278.133" stroke="white" stroke-opacity="0.03" stroke-miterlimit="10"/>
<path d="M0.353516 1371.65L69.7935 1331.33L139.244 1291L208.684 1250.67L278.124 1210.34L347.574 1170.01L417.014 1129.69L486.464 1089.36L555.904 1049.03L625.354 1008.7L694.794 968.37L764.244 928.04L833.684 887.72L903.134 847.39L972.574 807.06L1042.02 766.73L1111.46 726.4L1180.9 686.08L1250.35 645.75L1319.79 605.42L1389.24 565.09L1458.68 524.76L1528.13 484.43L1597.57 444.11L1667.01 403.78L1736.46 363.45L1805.91 323.12L1875.35 282.79L1944.79 242.47L2014.23 202.14L2083.68 161.81L2153.13 121.48L2222.57 81.15L2292.02 40.82L2361.45 0.5H2361.46" stroke="white" stroke-opacity="0.03" stroke-miterlimit="10"/>
<path d="M2500.35 1371.65L2430.91 1331.33L2361.46 1291L2292.02 1250.67L2222.58 1210.34L2153.13 1170.01L2083.69 1129.69L2014.24 1089.36L1944.8 1049.03L1875.35 1008.7L1805.91 968.37L1736.46 928.04L1667.02 887.72L1597.57 847.39L1528.13 807.06L1458.68 766.73L1389.24 726.4L1319.8 686.08L1250.35 645.75L1180.91 605.42L1111.46 565.09L1042.02 524.76L972.574 484.43L903.134 444.11L833.694 403.78L764.244 363.45L694.794 323.12L625.354 282.79L555.914 242.47L486.474 202.14L417.024 161.81L347.574 121.48L278.134 81.15L208.684 40.82L139.254 0.5H139.244" stroke="white" stroke-opacity="0.03" stroke-miterlimit="10"/>
<path d="M0.353516 1371.65L69.7935 1331.33L139.244 1291L208.684 1250.67L278.124 1210.34L347.574 1170.01L417.014 1129.69L486.464 1089.36L555.904 1049.03L625.354 1008.7L694.794 968.37L764.244 928.04L833.684 887.72L903.134 847.39L972.574 807.06L1042.02 766.73L1111.46 726.4L1180.9 686.08L1250.35 645.75L1319.79 605.42L1389.24 565.09L1458.68 524.76L1528.13 484.43L1597.57 444.11L1667.01 403.78L1736.46 363.45L1805.91 323.12L1875.35 282.79L1944.79 242.47L2014.23 202.14L2083.68 161.81L2153.13 121.48L2222.57 81.15L2292.02 40.82L2361.45 0.5H2361.46" stroke="white" stroke-opacity="0.03" stroke-miterlimit="10"/>
<path d="M2500.35 1371.65L2430.91 1331.33L2361.46 1291L2292.02 1250.67L2222.58 1210.34L2153.13 1170.01L2083.69 1129.69L2014.24 1089.36L1944.8 1049.03L1875.35 1008.7L1805.91 968.37L1736.46 928.04L1667.02 887.72L1597.57 847.39L1528.13 807.06L1458.68 766.73L1389.24 726.4L1319.8 686.08L1250.35 645.75L1180.91 605.42L1111.46 565.09L1042.02 524.76L972.574 484.43L903.134 444.11L833.694 403.78L764.244 363.45L694.794 323.12L625.354 282.79L555.914 242.47L486.474 202.14L417.024 161.81L347.574 121.48L278.134 81.15L208.684 40.82L139.254 0.5H139.244" stroke="white" stroke-opacity="0.03" stroke-miterlimit="10"/>
<path d="M2500.35 0.5L0.353516 1452.31" stroke="white" stroke-opacity="0.03" stroke-miterlimit="10"/>
<path d="M0.353516 0.5L2500.35 1452.31" stroke="white" stroke-opacity="0.03" stroke-miterlimit="10"/>
<path d="M2500.35 0.5L0.353516 1452.31" stroke="white" stroke-opacity="0.03" stroke-miterlimit="10"/>
<path d="M0.353516 0.5L2500.35 1452.31" stroke="white" stroke-opacity="0.03" stroke-miterlimit="10"/>
<path d="M2500.35 81.1504L0.353516 1532.97" stroke="white" stroke-opacity="0.03" stroke-miterlimit="10"/>
<path d="M0.353516 81.1504L2500.35 1532.97" stroke="white" stroke-opacity="0.03" stroke-miterlimit="10"/>
<path d="M2500.35 81.1504L0.353516 1532.97" stroke="white" stroke-opacity="0.03" stroke-miterlimit="10"/>
<path d="M0.353516 81.1504L2500.35 1532.97" stroke="white" stroke-opacity="0.03" stroke-miterlimit="10"/>
<path d="M2500.35 161.81L0.353516 1613.62" stroke="white" stroke-opacity="0.03" stroke-miterlimit="10"/>
<path d="M0.353516 161.81L2500.35 1613.62" stroke="white" stroke-opacity="0.03" stroke-miterlimit="10"/>
<path d="M2500.35 161.81L0.353516 1613.62" stroke="white" stroke-opacity="0.03" stroke-miterlimit="10"/>
<path d="M0.353516 161.81L2500.35 1613.62" stroke="white" stroke-opacity="0.03" stroke-miterlimit="10"/>
<path d="M2500.35 242.47L0.353516 1694.28" stroke="white" stroke-opacity="0.03" stroke-miterlimit="10"/>
<path d="M0.353516 242.47L2500.35 1694.28" stroke="white" stroke-opacity="0.03" stroke-miterlimit="10"/>
<path d="M2500.35 242.47L0.353516 1694.28" stroke="white" stroke-opacity="0.03" stroke-miterlimit="10"/>
<path d="M0.353516 242.47L2500.35 1694.28" stroke="white" stroke-opacity="0.03" stroke-miterlimit="10"/>
<path d="M2500.35 323.12L0.353516 1774.94" stroke="white" stroke-opacity="0.03" stroke-miterlimit="10"/>
<path d="M0.353516 323.12L2500.35 1774.94" stroke="white" stroke-opacity="0.03" stroke-miterlimit="10"/>
<path d="M2500.35 323.12L0.353516 1774.94" stroke="white" stroke-opacity="0.03" stroke-miterlimit="10"/>
<path d="M0.353516 323.12L2500.35 1774.94" stroke="white" stroke-opacity="0.03" stroke-miterlimit="10"/>
<path d="M2500.35 403.78L0.353516 1855.59" stroke="white" stroke-opacity="0.03" stroke-miterlimit="10"/>
<path d="M0.353516 403.78L2500.35 1855.59" stroke="white" stroke-opacity="0.03" stroke-miterlimit="10"/>
<path d="M2500.35 403.78L0.353516 1855.59" stroke="white" stroke-opacity="0.03" stroke-miterlimit="10"/>
<path d="M0.353516 403.78L2500.35 1855.59" stroke="white" stroke-opacity="0.03" stroke-miterlimit="10"/>
<path d="M2500.35 484.43L0.353516 1936.25" stroke="white" stroke-opacity="0.03" stroke-miterlimit="10"/>
<path d="M0.353516 484.43L2500.35 1936.25" stroke="white" stroke-opacity="0.03" stroke-miterlimit="10"/>
<path d="M2500.35 484.43L0.353516 1936.25" stroke="white" stroke-opacity="0.03" stroke-miterlimit="10"/>
<path d="M0.353516 484.43L2500.35 1936.25" stroke="white" stroke-opacity="0.03" stroke-miterlimit="10"/>
<path d="M2500.35 565.09L0.353516 2016.91" stroke="white" stroke-opacity="0.03" stroke-miterlimit="10"/>
<path d="M0.353516 565.09L2500.35 2016.91" stroke="white" stroke-opacity="0.03" stroke-miterlimit="10"/>
<path d="M2500.35 565.09L0.353516 2016.91" stroke="white" stroke-opacity="0.03" stroke-miterlimit="10"/>
<path d="M0.353516 565.09L2500.35 2016.91" stroke="white" stroke-opacity="0.03" stroke-miterlimit="10"/>
<path d="M2500.35 645.75L0.353516 2097.56" stroke="white" stroke-opacity="0.03" stroke-miterlimit="10"/>
<path d="M0.353516 645.75L2500.35 2097.56" stroke="white" stroke-opacity="0.03" stroke-miterlimit="10"/>
<path d="M2500.35 645.75L0.353516 2097.56" stroke="white" stroke-opacity="0.03" stroke-miterlimit="10"/>
<path d="M0.353516 645.75L2500.35 2097.56" stroke="white" stroke-opacity="0.03" stroke-miterlimit="10"/>
<path d="M2500.35 726.4L0.353516 2178.22" stroke="white" stroke-opacity="0.03" stroke-miterlimit="10"/>
<path d="M0.353516 726.4L2500.35 2178.22" stroke="white" stroke-opacity="0.03" stroke-miterlimit="10"/>
<path d="M2500.35 726.4L0.353516 2178.22" stroke="white" stroke-opacity="0.03" stroke-miterlimit="10"/>
<path d="M0.353516 726.4L2500.35 2178.22" stroke="white" stroke-opacity="0.03" stroke-miterlimit="10"/>
<path d="M2500.35 807.06L0.353516 2258.87" stroke="white" stroke-opacity="0.03" stroke-miterlimit="10"/>
<path d="M0.353516 807.06L2500.35 2258.87" stroke="white" stroke-opacity="0.03" stroke-miterlimit="10"/>
<path d="M2500.35 807.06L0.353516 2258.87" stroke="white" stroke-opacity="0.03" stroke-miterlimit="10"/>
<path d="M0.353516 807.06L2500.35 2258.87" stroke="white" stroke-opacity="0.03" stroke-miterlimit="10"/>
<path d="M2500.35 887.72L0.353516 2339.53" stroke="white" stroke-opacity="0.03" stroke-miterlimit="10"/>
<path d="M0.353516 887.72L2500.35 2339.53" stroke="white" stroke-opacity="0.03" stroke-miterlimit="10"/>
<path d="M2500.35 887.72L0.353516 2339.53" stroke="white" stroke-opacity="0.03" stroke-miterlimit="10"/>
<path d="M0.353516 887.72L2500.35 2339.53" stroke="white" stroke-opacity="0.03" stroke-miterlimit="10"/>
<path d="M2500.35 968.37L0.353516 2420.19" stroke="white" stroke-opacity="0.03" stroke-miterlimit="10"/>
<path d="M0.353516 968.37L2500.35 2420.19" stroke="white" stroke-opacity="0.03" stroke-miterlimit="10"/>
<path d="M2500.35 968.37L0.353516 2420.19" stroke="white" stroke-opacity="0.03" stroke-miterlimit="10"/>
<path d="M0.353516 968.37L2500.35 2420.19" stroke="white" stroke-opacity="0.03" stroke-miterlimit="10"/>
<path d="M2500.35 1049.03L0.353516 2500.84" stroke="white" stroke-opacity="0.03" stroke-miterlimit="10"/>
<path d="M0.353516 1049.03L2500.35 2500.84" stroke="white" stroke-opacity="0.03" stroke-miterlimit="10"/>
<path d="M2500.35 1049.03L0.353516 2500.84" stroke="white" stroke-opacity="0.03" stroke-miterlimit="10"/>
<path d="M0.353516 1049.03L2500.35 2500.84" stroke="white" stroke-opacity="0.03" stroke-miterlimit="10"/>
<path d="M139.244 2500.85L139.254 2500.84L208.684 2460.52L278.134 2420.19L347.574 2379.86L417.024 2339.53L486.474 2299.2L555.914 2258.88L625.354 2218.55L694.794 2178.22L764.244 2137.89L833.694 2097.56L903.134 2057.24L972.574 2016.91L1042.02 1976.58L1111.46 1936.25L1180.91 1895.92L1250.35 1855.6L1319.8 1815.27L1389.24 1774.94L1458.68 1734.61L1528.13 1694.28L1597.57 1653.95L1667.02 1613.63L1736.46 1573.3L1805.91 1532.97L1875.35 1492.64L1944.8 1452.31L2014.24 1411.99L2083.69 1371.66L2153.13 1331.33L2500.35 1129.69" stroke="white" stroke-opacity="0.03" stroke-miterlimit="10"/>
<path d="M2361.46 2500.85L2361.45 2500.84L2292.02 2460.52L2222.57 2420.19L2153.13 2379.86L2083.68 2339.53L2014.23 2299.2L1944.79 2258.88L1875.35 2218.55L1805.91 2178.22L1736.46 2137.89L1667.01 2097.56L1597.57 2057.24L1528.13 2016.91L1458.68 1976.58L1389.24 1936.25L1319.79 1895.92L1250.35 1855.6L1180.9 1815.27L1111.46 1774.94L1042.02 1734.61L972.574 1694.28L903.134 1653.95L833.684 1613.63L764.244 1573.3L694.794 1532.97L625.354 1492.64L555.904 1452.31L486.464 1411.99L417.014 1371.66L347.574 1331.33L0.353516 1129.69" stroke="white" stroke-opacity="0.03" stroke-miterlimit="10"/>
<path d="M139.244 2500.85L139.254 2500.84L208.684 2460.52L278.134 2420.19L347.574 2379.86L417.024 2339.53L486.474 2299.2L555.914 2258.88L625.354 2218.55L694.794 2178.22L764.244 2137.89L833.694 2097.56L903.134 2057.24L972.574 2016.91L1042.02 1976.58L1111.46 1936.25L1180.91 1895.92L1250.35 1855.6L1319.8 1815.27L1389.24 1774.94L1458.68 1734.61L1528.13 1694.28L1597.57 1653.95L1667.02 1613.63L1736.46 1573.3L1805.91 1532.97L1875.35 1492.64L1944.8 1452.31L2014.24 1411.99L2083.69 1371.66L2153.13 1331.33L2500.35 1129.69" stroke="white" stroke-opacity="0.03" stroke-miterlimit="10"/>
<path d="M2361.46 2500.85L2361.45 2500.84L2292.02 2460.52L2222.57 2420.19L2153.13 2379.86L2083.68 2339.53L2014.23 2299.2L1944.79 2258.88L1875.35 2218.55L1805.91 2178.22L1736.46 2137.89L1667.01 2097.56L1597.57 2057.24L1528.13 2016.91L1458.68 1976.58L1389.24 1936.25L1319.79 1895.92L1250.35 1855.6L1180.9 1815.27L1111.46 1774.94L1042.02 1734.61L972.574 1694.28L903.134 1653.95L833.684 1613.63L764.244 1573.3L694.794 1532.97L625.354 1492.64L555.904 1452.31L486.464 1411.99L417.014 1371.66L347.574 1331.33L0.353516 1129.69" stroke="white" stroke-opacity="0.03" stroke-miterlimit="10"/>
<path d="M278.133 2500.85L278.143 2500.84L347.583 2460.52L417.023 2420.19L486.463 2379.86L555.913 2339.53L625.353 2299.2L694.803 2258.88L764.243 2218.55L833.693 2178.22L903.133 2137.89L972.573 2097.56L1042.02 2057.24L1111.46 2016.91L1180.91 1976.58L1250.35 1936.25L1319.79 1895.92L1389.24 1855.59L1458.68 1815.27L1528.13 1774.94L1597.57 1734.61L1667.02 1694.28L1736.46 1653.95L1805.9 1613.63L1875.35 1573.3L1944.8 1532.97L2014.24 1492.64L2083.68 1452.31L2153.13 1411.98L2222.57 1371.66L2500.35 1210.34" stroke="white" stroke-opacity="0.03" stroke-miterlimit="10"/>
<path d="M2222.57 2500.85L2222.56 2500.84L2153.12 2460.52L2083.68 2420.19L2014.24 2379.86L1944.79 2339.53L1875.35 2299.2L1805.9 2258.88L1736.46 2218.55L1667.01 2178.22L1597.57 2137.89L1528.13 2097.56L1458.68 2057.24L1389.24 2016.91L1319.79 1976.58L1250.35 1936.25L1180.91 1895.92L1111.46 1855.59L1042.02 1815.27L972.574 1774.94L903.134 1734.61L833.684 1694.28L764.244 1653.95L694.804 1613.63L625.354 1573.3L555.904 1532.97L486.464 1492.64L417.023 1452.31L347.574 1411.98L278.134 1371.66L0.353516 1210.34" stroke="white" stroke-opacity="0.03" stroke-miterlimit="10"/>
<path d="M278.133 2500.85L278.143 2500.84L347.583 2460.52L417.023 2420.19L486.463 2379.86L555.913 2339.53L625.353 2299.2L694.803 2258.88L764.243 2218.55L833.693 2178.22L903.133 2137.89L972.573 2097.56L1042.02 2057.24L1111.46 2016.91L1180.91 1976.58L1250.35 1936.25L1319.79 1895.92L1389.24 1855.59L1458.68 1815.27L1528.13 1774.94L1597.57 1734.61L1667.02 1694.28L1736.46 1653.95L1805.9 1613.63L1875.35 1573.3L1944.8 1532.97L2014.24 1492.64L2083.68 1452.31L2153.13 1411.98L2222.57 1371.66L2500.35 1210.34" stroke="white" stroke-opacity="0.03" stroke-miterlimit="10"/>
<path d="M2222.57 2500.85L2222.56 2500.84L2153.12 2460.52L2083.68 2420.19L2014.24 2379.86L1944.79 2339.53L1875.35 2299.2L1805.9 2258.88L1736.46 2218.55L1667.01 2178.22L1597.57 2137.89L1528.13 2097.56L1458.68 2057.24L1389.24 2016.91L1319.79 1976.58L1250.35 1936.25L1180.91 1895.92L1111.46 1855.59L1042.02 1815.27L972.574 1774.94L903.134 1734.61L833.684 1694.28L764.244 1653.95L694.804 1613.63L625.354 1573.3L555.904 1532.97L486.464 1492.64L417.023 1452.31L347.574 1411.98L278.134 1371.66L0.353516 1210.34" stroke="white" stroke-opacity="0.03" stroke-miterlimit="10"/>
<path d="M417.023 2500.84L486.463 2460.52L555.903 2420.19L625.353 2379.86L694.793 2339.53L764.243 2299.2L833.683 2258.88L903.133 2218.55L972.573 2178.22L1042.02 2137.89L1111.46 2097.56L1180.91 2057.23L1250.35 2016.91L1319.79 1976.58L1389.24 1936.25L1458.68 1895.92L1528.13 1855.59L1597.57 1815.27L1667.02 1774.94L1736.46 1734.61L1805.91 1694.28L1875.35 1653.95L1944.8 1613.62L2014.24 1573.3L2083.68 1532.97L2153.13 1492.64L2222.58 1452.31L2292.02 1411.98L2500.35 1291" stroke="white" stroke-opacity="0.03" stroke-miterlimit="10"/>
<path d="M2083.68 2500.84L2014.24 2460.52L1944.8 2420.19L1875.35 2379.86L1805.91 2339.53L1736.46 2299.2L1667.02 2258.88L1597.57 2218.55L1528.13 2178.22L1458.68 2137.89L1389.24 2097.56L1319.79 2057.23L1250.35 2016.91L1180.91 1976.58L1111.46 1936.25L1042.02 1895.92L972.574 1855.59L903.134 1815.27L833.684 1774.94L764.244 1734.61L694.794 1694.28L625.354 1653.95L555.904 1613.62L486.464 1573.3L417.023 1532.97L347.574 1492.64L278.124 1452.31L208.684 1411.98L0.353516 1291" stroke="white" stroke-opacity="0.03" stroke-miterlimit="10"/>
<path d="M417.023 2500.84L486.463 2460.52L555.903 2420.19L625.353 2379.86L694.793 2339.53L764.243 2299.2L833.683 2258.88L903.133 2218.55L972.573 2178.22L1042.02 2137.89L1111.46 2097.56L1180.91 2057.23L1250.35 2016.91L1319.79 1976.58L1389.24 1936.25L1458.68 1895.92L1528.13 1855.59L1597.57 1815.27L1667.02 1774.94L1736.46 1734.61L1805.91 1694.28L1875.35 1653.95L1944.8 1613.62L2014.24 1573.3L2083.68 1532.97L2153.13 1492.64L2222.58 1452.31L2292.02 1411.98L2500.35 1291" stroke="white" stroke-opacity="0.03" stroke-miterlimit="10"/>
<path d="M2083.68 2500.84L2014.24 2460.52L1944.8 2420.19L1875.35 2379.86L1805.91 2339.53L1736.46 2299.2L1667.02 2258.88L1597.57 2218.55L1528.13 2178.22L1458.68 2137.89L1389.24 2097.56L1319.79 2057.23L1250.35 2016.91L1180.91 1976.58L1111.46 1936.25L1042.02 1895.92L972.574 1855.59L903.134 1815.27L833.684 1774.94L764.244 1734.61L694.794 1694.28L625.354 1653.95L555.904 1613.62L486.464 1573.3L417.023 1532.97L347.574 1492.64L278.124 1452.31L208.684 1411.98L0.353516 1291" stroke="white" stroke-opacity="0.03" stroke-miterlimit="10"/>
<path d="M555.904 2500.84H555.914L625.354 2460.52L694.804 2420.19L764.244 2379.86L833.684 2339.53L903.134 2299.2L972.574 2258.87L1042.02 2218.55L1111.46 2178.22L1180.9 2137.89L1250.35 2097.56L1319.79 2057.23L1389.24 2016.91L1458.68 1976.58L1528.13 1936.25L1597.57 1895.92L1667.01 1855.59L1736.46 1815.26L1805.9 1774.94L1875.35 1734.61L1944.79 1694.28L2014.24 1653.95L2083.68 1613.62L2153.12 1573.3L2222.57 1532.97L2292.02 1492.64L2361.46 1452.31L2500.35 1371.65" stroke="white" stroke-opacity="0.03" stroke-miterlimit="10"/>
<path d="M1944.8 2500.84H1944.79L1875.35 2460.52L1805.9 2420.19L1736.46 2379.86L1667.02 2339.53L1597.57 2299.2L1528.13 2258.87L1458.68 2218.55L1389.24 2178.22L1319.8 2137.89L1250.35 2097.56L1180.91 2057.23L1111.46 2016.91L1042.02 1976.58L972.574 1936.25L903.134 1895.92L833.694 1855.59L764.244 1815.26L694.804 1774.94L625.354 1734.61L555.914 1694.28L486.464 1653.95L417.023 1613.62L347.583 1573.3L278.134 1532.97L208.684 1492.64L139.244 1452.31L0.353516 1371.65" stroke="white" stroke-opacity="0.03" stroke-miterlimit="10"/>
<path d="M555.904 2500.84H555.914L625.354 2460.52L694.804 2420.19L764.244 2379.86L833.684 2339.53L903.134 2299.2L972.574 2258.87L1042.02 2218.55L1111.46 2178.22L1180.9 2137.89L1250.35 2097.56L1319.79 2057.23L1389.24 2016.91L1458.68 1976.58L1528.13 1936.25L1597.57 1895.92L1667.01 1855.59L1736.46 1815.26L1805.9 1774.94L1875.35 1734.61L1944.79 1694.28L2014.24 1653.95L2083.68 1613.62L2153.12 1573.3L2222.57 1532.97L2292.02 1492.64L2361.46 1452.31L2500.35 1371.65" stroke="white" stroke-opacity="0.03" stroke-miterlimit="10"/>
<path d="M1944.8 2500.84H1944.79L1875.35 2460.52L1805.9 2420.19L1736.46 2379.86L1667.02 2339.53L1597.57 2299.2L1528.13 2258.87L1458.68 2218.55L1389.24 2178.22L1319.8 2137.89L1250.35 2097.56L1180.91 2057.23L1111.46 2016.91L1042.02 1976.58L972.574 1936.25L903.134 1895.92L833.694 1855.59L764.244 1815.26L694.804 1774.94L625.354 1734.61L555.914 1694.28L486.464 1653.95L417.023 1613.62L347.583 1573.3L278.134 1532.97L208.684 1492.64L139.244 1452.31L0.353516 1371.65" stroke="white" stroke-opacity="0.03" stroke-miterlimit="10"/>
<path d="M694.803 2500.85L694.813 2500.84L764.243 2460.52L833.693 2420.19L903.133 2379.86L972.573 2339.53L1042.02 2299.2L1111.46 2258.88L1180.91 2218.55L1250.35 2178.22L1319.8 2137.89L1389.24 2097.56L1458.68 2057.24L1528.13 2016.91L1597.57 1976.58L1667.02 1936.25L1736.46 1895.92L1805.91 1855.59L1875.35 1815.27L1944.8 1774.94L2014.24 1734.61L2083.68 1694.28L2153.13 1653.95L2222.57 1613.63L2292.02 1573.3L2361.46 1532.97L2430.9 1492.64L2500.35 1452.31" stroke="white" stroke-opacity="0.03" stroke-miterlimit="10"/>
<path d="M1805.9 2500.85L1805.89 2500.84L1736.46 2460.52L1667.01 2420.19L1597.57 2379.86L1528.13 2339.53L1458.68 2299.2L1389.24 2258.88L1319.79 2218.55L1250.35 2178.22L1180.9 2137.89L1111.46 2097.56L1042.02 2057.24L972.574 2016.91L903.134 1976.58L833.684 1936.25L764.244 1895.92L694.794 1855.59L625.354 1815.27L555.904 1774.94L486.464 1734.61L417.023 1694.28L347.574 1653.95L278.134 1613.63L208.684 1573.3L139.244 1532.97L69.8035 1492.64L0.353516 1452.31" stroke="white" stroke-opacity="0.03" stroke-miterlimit="10"/>
<path d="M694.803 2500.85L694.813 2500.84L764.243 2460.52L833.693 2420.19L903.133 2379.86L972.573 2339.53L1042.02 2299.2L1111.46 2258.88L1180.91 2218.55L1250.35 2178.22L1319.8 2137.89L1389.24 2097.56L1458.68 2057.24L1528.13 2016.91L1597.57 1976.58L1667.02 1936.25L1736.46 1895.92L1805.91 1855.59L1875.35 1815.27L1944.8 1774.94L2014.24 1734.61L2083.68 1694.28L2153.13 1653.95L2222.57 1613.63L2292.02 1573.3L2361.46 1532.97L2430.9 1492.64L2500.35 1452.31" stroke="white" stroke-opacity="0.03" stroke-miterlimit="10"/>
<path d="M1805.9 2500.85L1805.89 2500.84L1736.46 2460.52L1667.01 2420.19L1597.57 2379.86L1528.13 2339.53L1458.68 2299.2L1389.24 2258.88L1319.79 2218.55L1250.35 2178.22L1180.9 2137.89L1111.46 2097.56L1042.02 2057.24L972.574 2016.91L903.134 1976.58L833.684 1936.25L764.244 1895.92L694.794 1855.59L625.354 1815.27L555.904 1774.94L486.464 1734.61L417.023 1694.28L347.574 1653.95L278.134 1613.63L208.684 1573.3L139.244 1532.97L69.8035 1492.64L0.353516 1452.31" stroke="white" stroke-opacity="0.03" stroke-miterlimit="10"/>
<path d="M833.684 2500.84H833.694L903.134 2460.52L972.574 2420.19L1042.02 2379.86L1111.46 2339.53L1180.91 2299.2L1250.35 2258.88L1319.79 2218.55L1389.24 2178.22L1458.68 2137.89L1528.13 2097.56L1597.57 2057.24L1667.02 2016.91L1736.46 1976.58L1805.91 1936.25L1875.35 1895.92L1944.8 1855.59L2014.24 1815.27L2083.68 1774.94L2153.13 1734.61L2222.58 1694.28L2292.02 1653.95L2361.46 1613.63L2430.91 1573.3L2500.35 1532.97" stroke="white" stroke-opacity="0.03" stroke-miterlimit="10"/>
<path d="M1667.02 2500.84H1667.01L1597.57 2460.52L1528.13 2420.19L1458.68 2379.86L1389.24 2339.53L1319.79 2299.2L1250.35 2258.88L1180.91 2218.55L1111.46 2178.22L1042.02 2137.89L972.574 2097.56L903.134 2057.24L833.684 2016.91L764.244 1976.58L694.794 1936.25L625.354 1895.92L555.904 1855.59L486.464 1815.27L417.023 1774.94L347.574 1734.61L278.124 1694.28L208.684 1653.95L139.244 1613.63L69.7935 1573.3L0.353516 1532.97" stroke="white" stroke-opacity="0.03" stroke-miterlimit="10"/>
<path d="M833.684 2500.84H833.694L903.134 2460.52L972.574 2420.19L1042.02 2379.86L1111.46 2339.53L1180.91 2299.2L1250.35 2258.88L1319.79 2218.55L1389.24 2178.22L1458.68 2137.89L1528.13 2097.56L1597.57 2057.24L1667.02 2016.91L1736.46 1976.58L1805.91 1936.25L1875.35 1895.92L1944.8 1855.59L2014.24 1815.27L2083.68 1774.94L2153.13 1734.61L2222.58 1694.28L2292.02 1653.95L2361.46 1613.63L2430.91 1573.3L2500.35 1532.97" stroke="white" stroke-opacity="0.03" stroke-miterlimit="10"/>
<path d="M1667.02 2500.84H1667.01L1597.57 2460.52L1528.13 2420.19L1458.68 2379.86L1389.24 2339.53L1319.79 2299.2L1250.35 2258.88L1180.91 2218.55L1111.46 2178.22L1042.02 2137.89L972.574 2097.56L903.134 2057.24L833.684 2016.91L764.244 1976.58L694.794 1936.25L625.354 1895.92L555.904 1855.59L486.464 1815.27L417.023 1774.94L347.574 1734.61L278.124 1694.28L208.684 1653.95L139.244 1613.63L69.7935 1573.3L0.353516 1532.97" stroke="white" stroke-opacity="0.03" stroke-miterlimit="10"/>
<path d="M972.574 2500.84H972.584L1042.02 2460.52L1111.46 2420.19L1180.91 2379.86L1250.35 2339.53L1319.79 2299.2L1389.24 2258.88L1458.68 2218.55L1528.13 2178.22L1597.57 2137.89L1667.01 2097.56L1736.46 2057.23L1805.9 2016.91L1875.35 1976.58L1944.8 1936.25L2014.24 1895.92L2083.68 1855.59L2153.12 1815.27L2222.57 1774.94L2292.02 1734.61L2361.46 1694.28L2430.9 1653.95L2500.35 1613.62" stroke="white" stroke-opacity="0.03" stroke-miterlimit="10"/>
<path d="M1528.13 2500.84H1528.12L1458.68 2460.52L1389.24 2420.19L1319.79 2379.86L1250.35 2339.53L1180.91 2299.2L1111.46 2258.88L1042.02 2218.55L972.574 2178.22L903.134 2137.89L833.694 2097.56L764.244 2057.23L694.804 2016.91L625.354 1976.58L555.904 1936.25L486.464 1895.92L417.023 1855.59L347.583 1815.27L278.134 1774.94L208.684 1734.61L139.244 1694.28L69.8035 1653.95L0.353516 1613.62" stroke="white" stroke-opacity="0.03" stroke-miterlimit="10"/>
<path d="M972.574 2500.84H972.584L1042.02 2460.52L1111.46 2420.19L1180.91 2379.86L1250.35 2339.53L1319.79 2299.2L1389.24 2258.88L1458.68 2218.55L1528.13 2178.22L1597.57 2137.89L1667.01 2097.56L1736.46 2057.23L1805.9 2016.91L1875.35 1976.58L1944.8 1936.25L2014.24 1895.92L2083.68 1855.59L2153.12 1815.27L2222.57 1774.94L2292.02 1734.61L2361.46 1694.28L2430.9 1653.95L2500.35 1613.62" stroke="white" stroke-opacity="0.03" stroke-miterlimit="10"/>
<path d="M1528.13 2500.84H1528.12L1458.68 2460.52L1389.24 2420.19L1319.79 2379.86L1250.35 2339.53L1180.91 2299.2L1111.46 2258.88L1042.02 2218.55L972.574 2178.22L903.134 2137.89L833.694 2097.56L764.244 2057.23L694.804 2016.91L625.354 1976.58L555.904 1936.25L486.464 1895.92L417.023 1855.59L347.583 1815.27L278.134 1774.94L208.684 1734.61L139.244 1694.28L69.8035 1653.95L0.353516 1613.62" stroke="white" stroke-opacity="0.03" stroke-miterlimit="10"/>
<path d="M1111.46 2500.84L1180.9 2460.52L1250.35 2420.19L1319.79 2379.86L1389.24 2339.53L1458.68 2299.2L1528.13 2258.87L1597.57 2218.55L1667.01 2178.22L1736.46 2137.89L1805.91 2097.56L1875.35 2057.23L1944.79 2016.91L2014.24 1976.58L2083.68 1936.25L2153.13 1895.92L2222.57 1855.59L2292.02 1815.26L2361.46 1774.94L2430.9 1734.61L2500.35 1694.28" stroke="white" stroke-opacity="0.03" stroke-miterlimit="10"/>
<path d="M1389.24 2500.84L1319.8 2460.52L1250.35 2420.19L1180.91 2379.86L1111.46 2339.53L1042.02 2299.2L972.574 2258.87L903.134 2218.55L833.694 2178.22L764.244 2137.89L694.794 2097.56L625.354 2057.23L555.914 2016.91L486.464 1976.58L417.023 1936.25L347.574 1895.92L278.134 1855.59L208.684 1815.26L139.244 1774.94L69.8035 1734.61L0.353516 1694.28" stroke="white" stroke-opacity="0.03" stroke-miterlimit="10"/>
<path d="M1111.46 2500.84L1180.9 2460.52L1250.35 2420.19L1319.79 2379.86L1389.24 2339.53L1458.68 2299.2L1528.13 2258.87L1597.57 2218.55L1667.01 2178.22L1736.46 2137.89L1805.91 2097.56L1875.35 2057.23L1944.79 2016.91L2014.24 1976.58L2083.68 1936.25L2153.13 1895.92L2222.57 1855.59L2292.02 1815.26L2361.46 1774.94L2430.9 1734.61L2500.35 1694.28" stroke="white" stroke-opacity="0.03" stroke-miterlimit="10"/>
<path d="M1389.24 2500.84L1319.8 2460.52L1250.35 2420.19L1180.91 2379.86L1111.46 2339.53L1042.02 2299.2L972.574 2258.87L903.134 2218.55L833.694 2178.22L764.244 2137.89L694.794 2097.56L625.354 2057.23L555.914 2016.91L486.464 1976.58L417.023 1936.25L347.574 1895.92L278.134 1855.59L208.684 1815.26L139.244 1774.94L69.8035 1734.61L0.353516 1694.28" stroke="white" stroke-opacity="0.03" stroke-miterlimit="10"/>
<path d="M1250.35 2500.85L1250.36 2500.84L1319.8 2460.52L1389.24 2420.19L1458.68 2379.86L1528.13 2339.53L1597.57 2299.2L1667.02 2258.88L1736.46 2218.55L1805.91 2178.22L1875.35 2137.89L1944.8 2097.56L2014.24 2057.24L2083.69 2016.91L2153.13 1976.58L2222.58 1936.25L2292.02 1895.92L2361.46 1855.59L2430.91 1815.27L2500.35 1774.94" stroke="white" stroke-opacity="0.03" stroke-miterlimit="10"/>
<path d="M1250.35 2500.85L1250.34 2500.84L1180.9 2460.52L1111.46 2420.19L1042.02 2379.86L972.574 2339.53L903.134 2299.2L833.684 2258.88L764.244 2218.55L694.794 2178.22L625.354 2137.89L555.904 2097.56L486.464 2057.24L417.014 2016.91L347.574 1976.58L278.124 1936.25L208.684 1895.92L139.244 1855.59L69.7935 1815.27L0.353516 1774.94" stroke="white" stroke-opacity="0.03" stroke-miterlimit="10"/>
<path d="M1250.35 2500.85L1250.36 2500.84L1319.8 2460.52L1389.24 2420.19L1458.68 2379.86L1528.13 2339.53L1597.57 2299.2L1667.02 2258.88L1736.46 2218.55L1805.91 2178.22L1875.35 2137.89L1944.8 2097.56L2014.24 2057.24L2083.69 2016.91L2153.13 1976.58L2222.58 1936.25L2292.02 1895.92L2361.46 1855.59L2430.91 1815.27L2500.35 1774.94" stroke="white" stroke-opacity="0.03" stroke-miterlimit="10"/>
<path d="M1250.35 2500.85L1250.34 2500.84L1180.9 2460.52L1111.46 2420.19L1042.02 2379.86L972.574 2339.53L903.134 2299.2L833.684 2258.88L764.244 2218.55L694.794 2178.22L625.354 2137.89L555.904 2097.56L486.464 2057.24L417.014 2016.91L347.574 1976.58L278.124 1936.25L208.684 1895.92L139.244 1855.59L69.7935 1815.27L0.353516 1774.94" stroke="white" stroke-opacity="0.03" stroke-miterlimit="10"/>
<path d="M1389.24 2500.84L1458.68 2460.52L1528.13 2420.19L1597.57 2379.86L1667.02 2339.53L1736.46 2299.2L1805.9 2258.88L1875.35 2218.55L1944.8 2178.22L2014.24 2137.89L2083.68 2097.56L2153.13 2057.23L2222.57 2016.91L2292.02 1976.58L2361.46 1936.25L2430.9 1895.92L2500.35 1855.59" stroke="white" stroke-opacity="0.03" stroke-miterlimit="10"/>
<path d="M1111.46 2500.84L1042.02 2460.52L972.574 2420.19L903.134 2379.86L833.684 2339.53L764.244 2299.2L694.804 2258.88L625.354 2218.55L555.904 2178.22L486.464 2137.89L417.023 2097.56L347.574 2057.23L278.134 2016.91L208.684 1976.58L139.244 1936.25L69.8035 1895.92L0.353516 1855.59" stroke="white" stroke-opacity="0.03" stroke-miterlimit="10"/>
<path d="M1389.24 2500.84L1458.68 2460.52L1528.13 2420.19L1597.57 2379.86L1667.02 2339.53L1736.46 2299.2L1805.9 2258.88L1875.35 2218.55L1944.8 2178.22L2014.24 2137.89L2083.68 2097.56L2153.13 2057.23L2222.57 2016.91L2292.02 1976.58L2361.46 1936.25L2430.9 1895.92L2500.35 1855.59" stroke="white" stroke-opacity="0.03" stroke-miterlimit="10"/>
<path d="M1111.46 2500.84L1042.02 2460.52L972.574 2420.19L903.134 2379.86L833.684 2339.53L764.244 2299.2L694.804 2258.88L625.354 2218.55L555.904 2178.22L486.464 2137.89L417.023 2097.56L347.574 2057.23L278.134 2016.91L208.684 1976.58L139.244 1936.25L69.8035 1895.92L0.353516 1855.59" stroke="white" stroke-opacity="0.03" stroke-miterlimit="10"/>
<path d="M1528.12 2500.84H1528.13L1597.57 2460.52L1667.01 2420.19L1736.46 2379.86L1805.91 2339.53L1875.35 2299.2L1944.79 2258.88L2014.24 2218.55L2083.68 2178.22L2153.13 2137.89L2222.58 2097.56L2292.02 2057.23L2361.46 2016.91L2430.9 1976.58L2500.35 1936.25" stroke="white" stroke-opacity="0.03" stroke-miterlimit="10"/>
<path d="M972.584 2500.84H972.574L903.134 2460.52L833.694 2420.19L764.244 2379.86L694.794 2339.53L625.354 2299.2L555.914 2258.88L486.464 2218.55L417.023 2178.22L347.574 2137.89L278.124 2097.56L208.684 2057.23L139.244 2016.91L69.8035 1976.58L0.353516 1936.25" stroke="white" stroke-opacity="0.03" stroke-miterlimit="10"/>
<path d="M1528.12 2500.84H1528.13L1597.57 2460.52L1667.01 2420.19L1736.46 2379.86L1805.91 2339.53L1875.35 2299.2L1944.79 2258.88L2014.24 2218.55L2083.68 2178.22L2153.13 2137.89L2222.58 2097.56L2292.02 2057.23L2361.46 2016.91L2430.9 1976.58L2500.35 1936.25" stroke="white" stroke-opacity="0.03" stroke-miterlimit="10"/>
<path d="M972.584 2500.84H972.574L903.134 2460.52L833.694 2420.19L764.244 2379.86L694.794 2339.53L625.354 2299.2L555.914 2258.88L486.464 2218.55L417.023 2178.22L347.574 2137.89L278.124 2097.56L208.684 2057.23L139.244 2016.91L69.8035 1976.58L0.353516 1936.25" stroke="white" stroke-opacity="0.03" stroke-miterlimit="10"/>
<path d="M1667.01 2500.84H1667.02L1736.46 2460.52L1805.9 2420.19L1875.35 2379.86L1944.79 2339.53L2014.23 2299.2L2083.68 2258.87L2153.12 2218.55L2222.57 2178.22L2292.02 2137.89L2361.46 2097.56L2430.9 2057.23L2500.34 2016.91L2500.35 2016.9" stroke="white" stroke-opacity="0.03" stroke-miterlimit="10"/>
<path d="M833.694 2500.84H833.684L764.244 2460.52L694.804 2420.19L625.354 2379.86L555.914 2339.53L486.474 2299.2L417.023 2258.87L347.583 2218.55L278.134 2178.22L208.684 2137.89L139.244 2097.56L69.8035 2057.23L0.363516 2016.91L0.353516 2016.9" stroke="white" stroke-opacity="0.03" stroke-miterlimit="10"/>
<path d="M1667.01 2500.84H1667.02L1736.46 2460.52L1805.9 2420.19L1875.35 2379.86L1944.79 2339.53L2014.23 2299.2L2083.68 2258.87L2153.12 2218.55L2222.57 2178.22L2292.02 2137.89L2361.46 2097.56L2430.9 2057.23L2500.34 2016.91L2500.35 2016.9" stroke="white" stroke-opacity="0.03" stroke-miterlimit="10"/>
<path d="M833.694 2500.84H833.684L764.244 2460.52L694.804 2420.19L625.354 2379.86L555.914 2339.53L486.474 2299.2L417.023 2258.87L347.583 2218.55L278.134 2178.22L208.684 2137.89L139.244 2097.56L69.8035 2057.23L0.363516 2016.91L0.353516 2016.9" stroke="white" stroke-opacity="0.03" stroke-miterlimit="10"/>
<path d="M2500.35 2097.56L2430.9 2137.89L2361.46 2178.22L2292.02 2218.55L2222.57 2258.88L2153.13 2299.2L2083.68 2339.53L2014.24 2379.86L1944.8 2420.19L1875.35 2460.52L1805.91 2500.84L1805.9 2500.85" stroke="white" stroke-opacity="0.03" stroke-miterlimit="10"/>
<path d="M694.804 2500.85L694.794 2500.84L625.354 2460.52L555.904 2420.19L486.464 2379.86L417.023 2339.53L347.574 2299.2L278.134 2258.88L208.684 2218.55L139.244 2178.22L69.8035 2137.89L0.353516 2097.56" stroke="white" stroke-opacity="0.03" stroke-miterlimit="10"/>
<path d="M2500.35 2097.56L2430.9 2137.89L2361.46 2178.22L2292.02 2218.55L2222.57 2258.88L2153.13 2299.2L2083.68 2339.53L2014.24 2379.86L1944.8 2420.19L1875.35 2460.52L1805.91 2500.84L1805.9 2500.85" stroke="white" stroke-opacity="0.03" stroke-miterlimit="10"/>
<path d="M694.804 2500.85L694.794 2500.84L625.354 2460.52L555.904 2420.19L486.464 2379.86L417.023 2339.53L347.574 2299.2L278.134 2258.88L208.684 2218.55L139.244 2178.22L69.8035 2137.89L0.353516 2097.56" stroke="white" stroke-opacity="0.03" stroke-miterlimit="10"/>
<path d="M2500.35 2178.22L2430.91 2218.55L2361.46 2258.88L2292.02 2299.2H2292.01L2222.58 2339.53L2153.13 2379.86L2083.68 2420.19L2014.24 2460.52L1944.8 2500.84H1944.79" stroke="white" stroke-opacity="0.03" stroke-miterlimit="10"/>
<path d="M0.353516 2178.22L69.7935 2218.55L139.244 2258.88L208.684 2299.2H208.694L278.124 2339.53L347.574 2379.86L417.023 2420.19L486.464 2460.52L555.904 2500.84H555.914" stroke="white" stroke-opacity="0.03" stroke-miterlimit="10"/>
<path d="M2500.35 2178.22L2430.91 2218.55L2361.46 2258.88L2292.02 2299.2H2292.01L2222.58 2339.53L2153.13 2379.86L2083.68 2420.19L2014.24 2460.52L1944.8 2500.84H1944.79" stroke="white" stroke-opacity="0.03" stroke-miterlimit="10"/>
<path d="M0.353516 2178.22L69.7935 2218.55L139.244 2258.88L208.684 2299.2H208.694L278.124 2339.53L347.574 2379.86L417.023 2420.19L486.464 2460.52L555.904 2500.84H555.914" stroke="white" stroke-opacity="0.03" stroke-miterlimit="10"/>
<path d="M2083.68 2500.84L2153.12 2460.52L2222.57 2420.19L2292.02 2379.86L2361.46 2339.53L2430.9 2299.2L2500.35 2258.87" stroke="white" stroke-opacity="0.03" stroke-miterlimit="10"/>
<path d="M417.023 2500.84L347.583 2460.52L278.134 2420.19L208.684 2379.86L139.244 2339.53L69.8035 2299.2L0.353516 2258.87" stroke="white" stroke-opacity="0.03" stroke-miterlimit="10"/>
<path d="M2083.68 2500.84L2153.12 2460.52L2222.57 2420.19L2292.02 2379.86L2361.46 2339.53L2430.9 2299.2L2500.35 2258.87" stroke="white" stroke-opacity="0.03" stroke-miterlimit="10"/>
<path d="M417.023 2500.84L347.583 2460.52L278.134 2420.19L208.684 2379.86L139.244 2339.53L69.8035 2299.2L0.353516 2258.87" stroke="white" stroke-opacity="0.03" stroke-miterlimit="10"/>
<path d="M2222.57 2500.85L2222.58 2500.84L2292.02 2460.52L2361.46 2420.19L2430.9 2379.86L2500.35 2339.53" stroke="white" stroke-opacity="0.03" stroke-miterlimit="10"/>
<path d="M278.134 2500.85L278.124 2500.84L208.684 2460.52L139.244 2420.19L69.8035 2379.86L0.353516 2339.53" stroke="white" stroke-opacity="0.03" stroke-miterlimit="10"/>
<path d="M2222.57 2500.85L2222.58 2500.84L2292.02 2460.52L2361.46 2420.19L2430.9 2379.86L2500.35 2339.53" stroke="white" stroke-opacity="0.03" stroke-miterlimit="10"/>
<path d="M278.134 2500.85L278.124 2500.84L208.684 2460.52L139.244 2420.19L69.8035 2379.86L0.353516 2339.53" stroke="white" stroke-opacity="0.03" stroke-miterlimit="10"/>
<path d="M2361.46 2500.85L2361.47 2500.84L2430.91 2460.52L2500.35 2420.19" stroke="white" stroke-opacity="0.03" stroke-miterlimit="10"/>
<path d="M139.244 2500.85L139.234 2500.84L69.7935 2460.52L0.353516 2420.19" stroke="white" stroke-opacity="0.03" stroke-miterlimit="10"/>
<path d="M2361.46 2500.85L2361.47 2500.84L2430.91 2460.52L2500.35 2420.19" stroke="white" stroke-opacity="0.03" stroke-miterlimit="10"/>
<path d="M139.244 2500.85L139.234 2500.84L69.7935 2460.52L0.353516 2420.19" stroke="white" stroke-opacity="0.03" stroke-miterlimit="10"/>
<path d="M139.244 2500.85L139.234 2500.84H139.254L139.244 2500.85Z" stroke="white" stroke-opacity="0.03" stroke-miterlimit="10"/>
<path d="M278.133 2500.85L278.123 2500.84H278.143L278.133 2500.85Z" stroke="white" stroke-opacity="0.03" stroke-miterlimit="10"/>
<path d="M694.803 2500.85L694.793 2500.84H694.813L694.803 2500.85Z" stroke="white" stroke-opacity="0.03" stroke-miterlimit="10"/>
<path d="M1250.35 2500.85L1250.34 2500.84H1250.36L1250.35 2500.85Z" stroke="white" stroke-opacity="0.03" stroke-miterlimit="10"/>
<path d="M1805.9 2500.85L1805.89 2500.84H1805.91L1805.9 2500.85Z" stroke="white" stroke-opacity="0.03" stroke-miterlimit="10"/>
<path d="M2222.57 2500.85L2222.56 2500.84H2222.58L2222.57 2500.85Z" stroke="white" stroke-opacity="0.03" stroke-miterlimit="10"/>
<path d="M2361.46 2500.85L2361.45 2500.84H2361.47L2361.46 2500.85Z" stroke="white" stroke-opacity="0.03" stroke-miterlimit="10"/>
<path d="M69.8027 0.669922V2500.85" stroke="white" stroke-opacity="0.03" stroke-miterlimit="10"/>
<path d="M139.244 0.669922V2500.85" stroke="white" stroke-opacity="0.03" stroke-miterlimit="10"/>
<path d="M208.693 0.669922V2500.85" stroke="white" stroke-opacity="0.03" stroke-miterlimit="10"/>
<path d="M278.133 0.669922V2500.85" stroke="white" stroke-opacity="0.03" stroke-miterlimit="10"/>
<path d="M347.584 0.669922V2500.85" stroke="white" stroke-opacity="0.03" stroke-miterlimit="10"/>
<path d="M417.023 0.669922V2500.85" stroke="white" stroke-opacity="0.03" stroke-miterlimit="10"/>
<path d="M486.473 0.669922V2500.85" stroke="white" stroke-opacity="0.03" stroke-miterlimit="10"/>
<path d="M555.914 0.669922V2500.85" stroke="white" stroke-opacity="0.03" stroke-miterlimit="10"/>
<path d="M625.363 0.669922V2500.85" stroke="white" stroke-opacity="0.03" stroke-miterlimit="10"/>
<path d="M694.803 0.669922V2500.85" stroke="white" stroke-opacity="0.03" stroke-miterlimit="10"/>
<path d="M764.254 0.669922V2500.85" stroke="white" stroke-opacity="0.03" stroke-miterlimit="10"/>
<path d="M833.693 0.669922V2500.85" stroke="white" stroke-opacity="0.03" stroke-miterlimit="10"/>
<path d="M903.143 0.669922V2500.85" stroke="white" stroke-opacity="0.03" stroke-miterlimit="10"/>
<path d="M972.584 0.669922V2500.85" stroke="white" stroke-opacity="0.03" stroke-miterlimit="10"/>
<path d="M1042.03 0.669922V2500.85" stroke="white" stroke-opacity="0.03" stroke-miterlimit="10"/>
<path d="M1111.47 0.669922V2500.85" stroke="white" stroke-opacity="0.03" stroke-miterlimit="10"/>
<path d="M1180.92 0.669922V2500.85" stroke="white" stroke-opacity="0.03" stroke-miterlimit="10"/>
<path d="M1250.36 0.669922V2500.85" stroke="white" stroke-opacity="0.03" stroke-miterlimit="10"/>
<path d="M1319.81 0.669922V2500.85" stroke="white" stroke-opacity="0.03" stroke-miterlimit="10"/>
<path d="M1389.25 0.669922V2500.85" stroke="white" stroke-opacity="0.03" stroke-miterlimit="10"/>
<path d="M1458.7 0.669922V2500.85" stroke="white" stroke-opacity="0.03" stroke-miterlimit="10"/>
<path d="M1528.14 0.669922V2500.85" stroke="white" stroke-opacity="0.03" stroke-miterlimit="10"/>
<path d="M1597.59 0.669922V2500.85" stroke="white" stroke-opacity="0.03" stroke-miterlimit="10"/>
<path d="M1667.03 0.669922V2500.85" stroke="white" stroke-opacity="0.03" stroke-miterlimit="10"/>
<path d="M1736.48 0.669922V2500.85" stroke="white" stroke-opacity="0.03" stroke-miterlimit="10"/>
<path d="M1805.92 0.669922V2500.85" stroke="white" stroke-opacity="0.03" stroke-miterlimit="10"/>
<path d="M1875.37 0.669922V2500.85" stroke="white" stroke-opacity="0.03" stroke-miterlimit="10"/>
<path d="M1944.81 0.669922V2500.85" stroke="white" stroke-opacity="0.03" stroke-miterlimit="10"/>
<path d="M2014.26 0.669922V2500.85" stroke="white" stroke-opacity="0.03" stroke-miterlimit="10"/>
<path d="M2083.7 0.669922V2500.85" stroke="white" stroke-opacity="0.03" stroke-miterlimit="10"/>
<path d="M2153.15 0.669922V2500.85" stroke="white" stroke-opacity="0.03" stroke-miterlimit="10"/>
<path d="M2222.59 0.669922V2500.85" stroke="white" stroke-opacity="0.03" stroke-miterlimit="10"/>
<path d="M2292.04 0.669922V2500.85" stroke="white" stroke-opacity="0.03" stroke-miterlimit="10"/>
<path d="M2361.48 0.669922V2500.85" stroke="white" stroke-opacity="0.03" stroke-miterlimit="10"/>
<path d="M2430.93 0.669922V2500.85" stroke="white" stroke-opacity="0.03" stroke-miterlimit="10"/>
<path d="M2500.35 0.669922H0.654297V2500.84H2500.35V0.669922Z" stroke="white" stroke-opacity="0.03" stroke-miterlimit="10"/>
</svg>
